<?xml version="1.0" encoding="UTF-8"?>
<svg id="Warstwa_1" data-name="Warstwa 1" xmlns="http://www.w3.org/2000/svg" version="1.1" viewBox="0 0 841.9 218.8">
  <defs>
    <style>
      .cls-1 {
        fill: #d0d0d0;
        stroke-width: 0px;
      }
    </style>
  </defs>
  <g id="tlP3Ha.tif">
    <g>
      <path class="cls-1" d="M243.3,91.4c-7.4,9-14.9,17.9-22.3,26.9-1.8,2.2-3.6,4.4-5.5,6.6-3.4,4-8.7,4.1-12,0-8.9-10.7-17.8-21.4-26.7-32.1-.4-.5-.9-1-1.7-2v2.5c0,10,0,20,0,30,0,3.4-.9,4.4-4.3,4.4-1,0-1.9-.1-2.9-.3-1.4-.3-2.1-1.1-2.2-2.6,0-.1,0-.3,0-.4,0-14.7,0-29.3,0-44,0-3.8,3.8-5.7,7.9-3.9,1.3.6,2.5,1.6,3.4,2.7,10.3,12.3,20.5,24.6,30.8,36.9.4.5.8,1,1.3,1.6.4-.3.7-.6,1-.9,10.6-12.7,21.3-25.3,31.9-38,1.4-1.6,3-2.6,5.1-2.8,3.9-.5,6.1,1.4,6.1,5.3,0,14.1,0,28.3,0,42.4,0,2.7-.7,3.5-3.5,3.9-.6,0-1.2,0-1.7,0-3.5-.1-4.3-1-4.3-4.5,0-9.9,0-19.9,0-29.8,0-.7,0-1.4,0-2-.2,0-.3,0-.5,0Z"/>
      <path class="cls-1" d="M534.1,127.5c-6.3,0-12.6,0-18.9,0-2.7,0-3.4-.7-3.4-3.7,0-3.1.7-4,3.4-4,12.1,0,24.1,0,36.2,0,2.2,0,4.4-.5,6.4-1.2,2.6-.8,3.5-2.9,3.5-5.6,0-2.8-.3-5.5-3.5-6.4-3-.8-6.1-1.2-9.1-1.4-6.6-.2-13.2,0-19.8-.2-4.7-.2-9.4-1.1-13.2-4.2-2.2-1.9-3.6-4.3-3.7-7.2,0-2.5-.2-5.1.2-7.5.9-4.5,4.2-7,8.3-8.4,6.5-2.2,13.3-1.7,20-1.6.5,0,1.4.4,1.5.7.3,1.8.6,3.7.4,5.4-.2,1.6-1.9,1.5-3.2,1.5-3.9.1-7.8.2-11.6.4-.8,0-1.5.3-2.3.5-3.1,1-4,2.5-4.1,5.7-.2,3.6.9,5.2,4.1,6.1,2.8.7,5.7,1,8.6,1.1,6.5.2,13,0,19.4.2,3.8,0,7.6.8,11,2.7,3.3,1.8,5.7,4.4,5.9,8.3.2,3.1.4,6.4-.4,9.4-1.4,5.8-6.4,7.8-11.7,8.7-3.2.6-6.6.7-9.9.8-4.8.1-9.6,0-14.4,0Z"/>
      <path class="cls-1" d="M281.5,111.5c-.5,6,1.5,8.1,7.8,8.5,3.6.2,7.3.1,10.9.2,1.2,0,2.8-.2,3.1,1.4.2,1.6,0,3.4-.3,5,0,.3-.9.7-1.5.7-6.8,0-13.6.6-20.2-1.4-5.9-1.8-8.8-5.4-8.8-11.6,0-4.7,0-9.4,0-14.1,0-6.1,2.9-10.1,8.9-11.5,3.7-.9,7.6-1.4,11.5-1.5,7-.2,14-.1,21,.3,3.2.2,6.5,1.1,9.5,2.3,3.8,1.4,5.6,4.6,5.8,8.6.2,3.3,0,6.7,0,10.1,0,1.6-.7,2.6-2.4,2.8-1,.1-2.1.2-3.1.2-13.3,0-26.6,0-39.8,0-.8,0-1.5,0-2.4,0ZM320.2,104.3c0-1.3,0-2.4,0-3.5,0-3.1-1-4.6-4-5.4-1.8-.5-3.7-.8-5.5-.9-6.5-.1-13.1-.1-19.6,0-2.2,0-4.5.7-6.6,1.3-1.7.5-2.9,1.8-3,3.7-.1,1.5,0,3.1,0,4.7h38.8Z"/>
      <path class="cls-1" d="M747.5,107.2c.8.4,1.4.8,2,1.1,8.6,4.3,17.2,8.7,25.8,13,.7.4,1.7.7,2.1,1.3.6.9,1,2.1.9,3.1,0,.7-1.2,1.5-2,1.7-3,.8-6,.4-8.8-1-8.5-4.5-17-9-25.6-13.5-.6-.3-1.2-.6-2.1-1,0,4,0,7.6,0,11.3,0,1.5.3,3.3-1.5,4.1-2.1.9-4.4,1.1-6.3-.2-.8-.6-1.2-2.2-1.2-3.4,0-9.1,0-18.2,0-27.3,0-5.5,0-11,0-16.5,0-1.5,0-3.2,1.7-3.7,2.2-.7,4.6-1,6.5.6.7.6.9,2.2.9,3.4,0,6.8,0,13.7,0,20.5,0,.7,0,1.4,0,2.5.9-.4,1.5-.7,2.1-1,8.8-4.6,17.5-9.1,26.3-13.8,2.4-1.3,5-1.4,7.5-1,.9.1,2,1.2,2.2,2,.2.7-.5,1.9-1.2,2.5-.9.8-2.1,1.2-3.2,1.8-8,4.2-16,8.4-24.1,12.6-.6.3-1.1.6-1.9,1Z"/>
      <path class="cls-1" d="M454.8,107.2c5.6,2.9,10.9,5.5,16.2,8.2,4,2,8,4,11.9,6,.6.3,1.5.6,1.8,1.1.6.9,1.2,2.1,1,3.1-.1.7-1.3,1.6-2.1,1.8-3,.8-5.9.4-8.7-1-8.5-4.5-17-9-25.6-13.5-.6-.3-1.3-.6-2.3-1.2,0,.9,0,1.5,0,2,0,3.5,0,7.1,0,10.6,0,1.9-.9,2.9-2.7,3.1-1,.1-2.1.2-3.1,0-2.5-.3-3.2-1.2-3.2-3.7,0-14.8,0-29.7,0-44.5,0-2.6.8-3.5,3.4-3.8.8,0,1.7,0,2.5,0,2.4.3,3.1,1.1,3.2,3.5,0,7.2,0,14.3,0,21.5,0,.7,0,1.4,0,2.3.9-.4,1.5-.7,2.1-1,8.6-4.5,17.3-9,25.9-13.6,2.5-1.3,5.1-1.6,7.7-1.2.9.1,2.1,1.2,2.4,2,.2.7-.6,2.1-1.4,2.6-2,1.3-4.3,2.4-6.5,3.5-7.4,3.9-14.9,7.8-22.6,11.8Z"/>
      <path class="cls-1" d="M725.7,103.5c0,3.7,0,7.4,0,11-.1,6.2-2.9,9.8-8.9,11.5-2.4.6-4.8,1.3-7.2,1.3-9.1,0-18.3,0-27.4-.3-3.6-.1-7-1.2-9.9-3.5-2.3-1.8-3.7-4.2-3.8-7.1-.1-8.8,0-17.6-.1-26.3,0-1.9,1-2.8,2.9-3,.5,0,1,0,1.6,0,3.8,0,4.6.8,4.6,4.5,0,7.5,0,15,0,22.5,0,2.8.7,4.2,3.4,4.9,2.6.7,5.3,1.2,8,1.2,6.3.1,12.6,0,18.9,0,1.2,0,2.5-.2,3.7-.5,3.6-.9,5.6-2,5.4-6.6-.2-7.3,0-14.6,0-21.9,0-3.2.8-4,4-4.1.6,0,1.3,0,1.9,0,2.2.2,3,1,3.1,3.2,0,4.4,0,8.8,0,13.2,0,0,0,0,0,0Z"/>
      <path class="cls-1" d="M418.8,111.5c0,4.1,0,8.3,0,12.4,0,2.9-.8,3.7-3.6,3.9-.6,0-1.3,0-1.9,0-2.7-.3-3.5-1.1-3.5-3.9,0-7.6,0-15.2,0-22.8,0-3.2-.8-4.5-3.9-5.4-1.9-.6-3.9-1-5.9-1-6.1-.1-12.2-.1-18.3,0-2.2,0-4.4.6-6.4,1.2-2.2.7-3.4,2.3-3.3,4.8.1,7.6,0,15.2,0,22.8,0,1.5,0,3.2-1.6,3.8-2.2.8-4.5,1-6.5-.4-.6-.4-.9-1.5-.9-2.2,0-8.5,0-16.9,0-25.4,0-6,4.1-9.3,8.9-10.5,3.7-.9,7.5-1.4,11.3-1.5,6.7-.2,13.3,0,20,.2,4.3.2,8.5,1,12,3.9,2.2,1.8,3.4,4.1,3.5,6.8.1,4.4,0,8.8,0,13.2,0,0,0,0,.1,0Z"/>
      <path class="cls-1" d="M588.6,120.3c.7,0,1.4,0,2.1,0,11.7,0,23.5,0,35.2,0,3.6,0,5.2,2.3,3.8,5.7-.5,1.3-1.6,1.5-2.9,1.5-8,0-15.9,0-23.9,0-7.6,0-15.3,0-22.9,0-1.2,0-2.4-.2-3.7-.3-1.5-.2-2.7-.9-3.1-2.5-.4-1.7.3-3,1.6-4.1,3.5-2.6,7-5.2,10.4-7.7,10.9-8,21.8-16,32.6-24.1,3-2.2,6.2-1.7,9.5-1.3.6,0,1.4,1,1.4,1.5,0,.8-.5,1.9-1.2,2.4-4.3,3.2-8.7,6.3-13,9.5-8.7,6.3-17.4,12.6-26,18.9,0,.2,0,.3,0,.5Z"/>
      <path class="cls-1" d="M648.2,94.5v7.5c0,7.2,0,14.5,0,21.7,0,2.9-.8,3.8-3.7,4-.6,0-1.3,0-1.9,0-2.6-.3-3.3-1.1-3.4-3.7,0-6.5,0-12.9,0-19.4,0-3.3,0-6.6,0-10-2.9-.5-7.2,1.3-6.7-4.3.4-4.8,4.2-2.3,6.7-3.5,0-2.2,0-4.6,0-7,0-1.5-.2-3.2,1.6-3.8,2.2-.7,4.5-.9,6.5.5.6.5.8,1.7.9,2.6.1,2.6,0,5.1,0,8,.9,0,1.7,0,2.5,0,4,0,8,0,12.1,0,2.5,0,3,.8,3,3.9,0,2.6-.7,3.3-3.1,3.4-4.7,0-9.5,0-14.5,0Z"/>
      <path class="cls-1" d="M73.3,129.8c-5.7,0-11.4,0-17.1,0-5.3,0-8.9-3.5-8.9-8.9,0-11.6,0-23.1,0-34.7,0-5.1,3.6-8.7,8.7-8.7,11.7,0,23.5,0,35.2,0,4.8,0,8.5,3.5,8.5,8.3,0,11.9.1,23.9,0,35.8,0,4.7-3.7,8.1-8.4,8.1-6,0-11.9,0-17.9,0ZM49.9,103.7c0,5.7,0,11.4,0,17,0,4.2,2.2,6.4,6.5,6.4,11.4,0,22.8,0,34.2,0,4.1,0,6.4-2.2,6.4-6.3,0-11.4,0-22.8,0-34.3,0-4.1-2.3-6.3-6.4-6.3-11.4,0-22.8,0-34.2,0-4.2,0-6.5,2.2-6.5,6.4,0,5.7,0,11.4,0,17Z"/>
      <path class="cls-1" d="M131.2,77.5c5.6,0,11.3,0,16.9,0,5.6,0,9.1,3.5,9.1,9.1,0,11.4,0,22.8,0,34.3,0,5.3-3.6,8.9-8.9,8.9-11.5,0-23.1,0-34.6,0-5.3,0-8.9-3.4-8.9-8.7,0-11.7,0-23.4,0-35,0-5,3.6-8.5,8.7-8.5,5.9,0,11.8,0,17.7,0ZM154.6,103.8c0-5.7,0-11.5,0-17.2,0-4.1-2.3-6.3-6.4-6.3-11.3,0-22.7,0-34,0-4.5,0-6.7,2.2-6.7,6.6,0,11.2,0,22.5,0,33.7,0,4.5,2.2,6.6,6.7,6.6,11.3,0,22.7,0,34,0,4.2,0,6.4-2.3,6.4-6.5,0-5.6,0-11.2,0-16.8Z"/>
      <path class="cls-1" d="M333,111.6c0-3.5.1-7.1,0-10.6-.3-8,4.3-11.8,11.4-12.9,4-.6,8.1-.6,12.2-.7,2.5,0,3.1.8,3,3.8,0,2.7-.6,3.3-3,3.4-3.2.1-6.4,0-9.5.4-3.8.5-5,2.1-5,5.8,0,7.6,0,15.2,0,22.8,0,3.2-.8,4.1-4.1,4.2-.8,0-1.5,0-2.3-.2-1.8-.2-2.6-1.3-2.6-3.1,0-4.3,0-8.6,0-13h0Z"/>
      <path class="cls-1" d="M423.7,107.5c0-5.3,0-10.6,0-15.9,0-1.5,0-3.2,1.8-3.7,2.2-.6,4.5-1,6.5.6.6.5.8,1.6.8,2.5,0,11.1,0,22.2,0,33.3,0,2.3-.7,3-2.9,3.3-.8.1-1.7.2-2.5,0-2.8-.2-3.6-1.2-3.6-4,0-5.4,0-10.8,0-16.3Z"/>
      <path class="cls-1" d="M267.7,107.9c0,5.3,0,10.6,0,15.9,0,2.8-.8,3.7-3.6,4-1,0-1.9,0-2.9-.2-1.7-.2-2.5-1.2-2.5-2.9,0-1.4,0-2.8,0-4.3,0-9.6,0-19.1,0-28.7,0-1.5-.2-3.3,1.8-3.9,2.1-.6,4.4-.9,6.3.5.7.5.9,1.8.9,2.8,0,5.5,0,11.1,0,16.7Z"/>
      <path class="cls-1" d="M781.9,107.5c0-5.4,0-10.8,0-16.3,0-2.7.9-3.6,3.6-3.7.8,0,1.6,0,2.3,0,2.1.2,3.1,1.1,3.1,3.2,0,11.2,0,22.5,0,33.7,0,1.7-.8,2.8-2.6,3-1,.1-2.1.3-3.1.2-2.6-.3-3.3-1.1-3.3-3.7,0-5.5,0-11,0-16.5Z"/>
      <path class="cls-1" d="M263.6,84.5c-4.8,0-6.6-1.7-6-5.5,0-.3.1-.6.3-.9.9-2.2,5.3-3.2,8.5-1.9,2,.8,3,3.3,2.1,5.7-.9,2.5-3.2,2.5-4.9,2.6Z"/>
      <path class="cls-1" d="M428.3,84.6c-4.5-.1-6.7-2.4-5.4-6.1.3-.9,1.3-2.1,2.1-2.2,2.1-.3,4.4-.4,6.4,0,2,.4,2.4,2.2,2.4,4.1,0,1.8-.8,3.1-2.5,3.7-1,.3-2,.4-3,.6Z"/>
      <path class="cls-1" d="M786.3,84.5c-4.2,0-6-1.7-5.5-5.4,0-.3.1-.6.2-.9.7-1.9,3-2.8,6.2-2.5,3,.3,4.3,1.2,4.7,3.4.7,3.4-1.4,5.4-5.7,5.4Z"/>
      <path class="cls-1" d="M806.1,80.4c0,3.2-2.4,5.5-5.5,5.5-3.1,0-5.4-2.4-5.4-5.6,0-3.2,2.4-5.6,5.7-5.5,3.2,0,5.3,2.4,5.3,5.7ZM803.5,83.5c1.9-2.6,1.7-5.1-.3-6.7-1.6-1.3-3.8-1.2-5.3.2-1.6,1.5-1.7,4.4-.3,6.2,1.4,1.7,3.4,1.9,5.1.7-.9-1-1.7-2-2.7-3.2-.3,1.1-.5,2-.7,2.8l-.7-.2v-6.7c1.7.6,3.1.9,4.3,1.6.3.2-.3,1.8-.5,2.7-.2,0-.3,0-.5,0,.5.7,1,1.5,1.5,2.4Z"/>
      <path class="cls-1" d="M73.8,119.7c-3.6-.1-6.5-.9-8.9-3.1-.5-.5-.5-1.5-.8-2.2.8,0,1.8-.2,2.3.2,4.6,3.2,9.3,3.2,13.8,0,.6-.4,1.9-.6,2.3-.3,1,.9,0,1.7-.7,2.3-2.4,2-5.3,2.9-8,3Z"/>
      <path class="cls-1" d="M60.9,99c.7-1.2,1.2-2.9,1.8-2.9,1.9,0,1.3,1.7,1.2,2.8,0,1.2.8,3.1-1.3,3.1-.5,0-1.1-1.8-1.8-3.1Z"/>
      <path class="cls-1" d="M86.1,99.6c-.6.9-1.1,2.6-1.7,2.6-1.8,0-1.1-1.8-1.2-2.8,0-.6-.1-1.3,0-1.9.2-.5.7-.9,1.1-1.3.4.4,1.1.8,1.3,1.4.2.6,0,1.3,0,1.9.2,0,.3.2.5.3Z"/>
      <path class="cls-1" d="M131.9,112.8c2.1,0,5.1.9,7.5,3,.5.5.5,1.5.8,2.2-.8,0-1.8.2-2.3-.2-4.8-3.3-9.1-3.3-14,0-.5.4-1.7.5-2.1.2-1-.8-.2-1.6.5-2.2,2.5-2.1,5.3-3.1,9.7-3.1Z"/>
      <path class="cls-1" d="M121.4,98c0,.6.2,1.3,0,1.9-.2.5-.8.9-1.2,1.3-.4-.4-1.1-.8-1.2-1.2-.2-1.1-.2-2.3,0-3.4.1-.6.8-1,1.3-1.6.4.5.9,1,1.1,1.5.2.4,0,1,0,1.5,0,0,0,0,0,0Z"/>
      <path class="cls-1" d="M140.1,97.6c.6-.9,1.2-2.6,1.7-2.6,1.8,0,1.2,1.7,1.3,2.9,0,.6.2,1.4,0,1.9-.2.5-.9.9-1.3,1.3-.4-.4-.9-.8-1.1-1.4-.2-.6,0-1.3,0-1.9-.2,0-.3-.2-.5-.3Z"/>
      <path class="cls-1" d="M121.5,92.6c-.5.2-1,.7-1.5.6-.4,0-.8-.6-1.2-.9.4-.3.9-.8,1.4-.9.4,0,.8.4,1.3.6,0,.2,0,.4,0,.6Z"/>
      <path class="cls-1" d="M141.8,93.7c-.5-.6-.9-1.1-1.2-1.5.4-.3.8-.8,1.2-.8.5,0,.9.6,1.3.9-.3.4-.7.7-1.3,1.4Z"/>
    </g>
  </g>
</svg>