<?xml version="1.0" encoding="UTF-8"?>
<svg id="Warstwa_1" data-name="Warstwa 1" xmlns="http://www.w3.org/2000/svg" version="1.1" viewBox="0 0 3000 3000">
  <defs>
    <style>
      .cls-1 {
        fill: #ef0000;
        stroke-width: 0px;
      }
    </style>
  </defs>
  <path class="cls-1" d="M2557.4,727.4c-3.7-20.8-5.2-42.2-11.3-62.3-40.1-133.1-128.5-214.6-264.2-244.6-30-6.6-60.4-6.8-90.8-6.7H904.5c-37.3,0-74.5,0-111.8.2-17.9,0-35.9,1-53.6,3.3-85.7,11.2-157.6,49.1-214.2,114.4-56.5,65-83,141.6-83.5,227.4-.2,27.1-.1,54.2,0,81.4h-.2v1296.7h.2c.1,18.1.3,36.1.5,54.2.4,25.4,2.8,51.4,9.1,75.9,35.2,135.9,121.4,221.4,257.8,255.4,17.6,4.4,35.8,6,53.7,8.8h268.2s0,0,0,0h938.8s0,0,0,0h268.2c15.1-2.3,30.2-4.1,45.1-6.8,131.1-23.8,238.7-128,267-258.9,4-18.3,6.1-37,9-55.5V735c-.5-2.6-1.1-5.1-1.6-7.7ZM2449.6,2194.5c-.2,34.6-8,67.8-23.9,98.5-44.5,85.3-116,127.8-211.6,129.2-5.1,0-10.2,0-15.3.1v-.7H904.5v1c-43,0-86,0-129-.7-58-1-109.1-22.2-151.5-62.1-50.3-47.3-73.6-106.5-73.6-175.2,0-76.5,0-152.9,0-229.4,0-2.5-.1-4.9-.3-7.3v-951c.2-1.9.3-3.8.3-5.8,0-75.6,0-151.1.1-226.7,0-12.3.4-24.7,2-36.9,10.1-75.5,47.3-133.7,112.9-172.7,37.5-22.3,78.5-32,122.1-31.9,39,0,78,0,117,0v.7h1294.3v-.7c3.8,0,7.7,0,11.5,0,11.4,0,22.9.6,34.3,1.9,114.7,12.7,202.6,108.8,204.9,224.1.7,34.4.3,68.8.3,103.2,0,47.1-.2,94.1,0,141.2,0,0,0,0,0,0v958.8c0,.5,0,1,0,1.5-.1,80.3,0,160.5-.3,240.8Z"/>
  <path class="cls-1" d="M1473.6,1838.3c161.8,0,285.8,46.6,390.5,143.1,16.8,15.5,23.5,34.4,17.7,56.6-5.5,21.1-19.5,34.7-40.6,39.9-18.9,4.6-36.3.2-50.8-13-28.3-25.9-58.8-48.7-92.8-66.7-64.8-34.4-134.2-48.7-207.2-48.4-111.2.5-208.6,36.6-290.2,112.7-32.3,30.2-80.9,17.5-93.5-20.6-7.4-22.6-2.2-42.8,15-58.8,70.6-66,152.7-110.8,247.4-131.6,40.9-9,82.4-13.2,104.4-13.1Z"/>
  <path class="cls-1" d="M1989.5,1246.1c0,25.9.3,51.7,0,77.6-.5,31.4-25.1,55.6-54.8,54.8-26.9-.8-50.3-24.5-50.6-53.6-.7-52.3-.7-104.6,0-157,.4-30.2,24.8-54.2,53-54.1,28.2.2,51.9,24.5,52.5,54.6.5,25.9,0,51.7,0,77.6Z"/>
  <path class="cls-1" d="M1116.2,1247c0,26.5.5,52.9-.1,79.4-.6,23.2-16.8,43.8-37.9,50.2-29.5,8.9-60.7-11.3-66.2-42.8-.8-4.3-1.3-8.8-1.3-13.1,0-49.4-.2-98.8,0-148.1,0-6.7,1.1-13.5,3-19.9,7.6-25.1,31.4-41.3,55.4-38.3,25.1,3.1,45.2,24.9,47,50.8,0,1.5.2,2.9.2,4.4,0,25.9,0,51.7,0,77.6,0,0,0,0-.1,0Z"/>
  <path class="cls-1" d="M1989.5,1010.6c0,8.2.3,16.3,0,24.5-.5,9.9-25.1,17.6-54.8,17.3-26.9-.2-50.3-7.7-50.6-16.9-.7-16.5-.7-33,0-49.6.4-9.5,24.8-17.1,53-17.1,28.2,0,51.9,7.7,52.5,17.3.5,8.2,0,16.3,0,24.5Z"/>
  <path class="cls-1" d="M1116.2,1010.8c0,8.4.5,16.7-.1,25.1-.6,7.3-16.8,13.8-37.9,15.8-29.5,2.8-60.7-3.6-66.2-13.5-.8-1.4-1.3-2.8-1.3-4.1,0-15.6-.2-31.2,0-46.8,0-2.1,1.1-4.3,3-6.3,7.6-7.9,31.4-13,55.4-12.1,25.1,1,45.2,7.9,47,16,0,.5.2.9.2,1.4,0,8.2,0,16.3,0,24.5,0,0,0,0-.1,0Z"/>
</svg>